<?xml version="1.0" encoding="utf-8"?>
<!-- Generator: Adobe Illustrator 27.5.0, SVG Export Plug-In . SVG Version: 6.00 Build 0)  -->
<svg version="1.1" xmlns="http://www.w3.org/2000/svg" xmlns:xlink="http://www.w3.org/1999/xlink" x="0px" y="0px"
	 viewBox="0 0 3710 3710" style="enable-background:new 0 0 3710 3710;" xml:space="preserve">
<g id="Background">
	<g>
		<g>
			<rect style="fill:#FFFFFF;" width="3710" height="3710"/>
		</g>
	</g>
</g>
<g id="Illustration">
	<g>
		<linearGradient id="SVGID_1_" gradientUnits="userSpaceOnUse" x1="3516.0156" y1="3928.2551" x2="1129.7651" y2="964.6816">
			<stop  offset="0" style="stop-color:#DAE3FE"/>
			<stop  offset="1" style="stop-color:#E9EFFD"/>
		</linearGradient>
		<path style="fill:url(#SVGID_1_);" d="M2859.543,2759.529c-54.812,57.703-106.673,94.915-147.648,124.315
			c-481.654,345.592-1051.578,244.854-1172.703,220.252c-178.864-36.328-524.603-106.55-774.566-400.501
			c-378.174-444.725-319.286-1145.376-25.949-1607.885c53.656-84.601,337.082-554.155,913.145-629.457
			c348.627-45.572,755.014,46.341,1049.308,292.901C3318.879,1276.705,3274.902,2322.252,2859.543,2759.529z"/>
		<g>
			<g>
				<path style="fill:#BDD0FB;" d="M3010.683,1141.945c-3.723-15.56-25.879-15.788-29.853-0.29
					c-38.418,149.832-151.464,539.561-334.206,749.139c-297.546,341.241-488.338,888.767-286.582,1165.582
					C2360.041,3056.376,3416.267,2837.33,3010.683,1141.945z"/>
				<path style="opacity:0.43;fill:#FFFFFF;" d="M2986.087,1355.057c-0.268,4.875-0.876,8.877-1.341,13.208l-1.649,12.741
					l-3.578,25.419c-2.5,16.924-5.26,33.804-8.02,50.685c-5.641,33.738-11.701,67.404-18.07,101.014
					c-12.862,67.196-27.542,134.035-43.225,200.64c-15.59,66.632-33.043,132.829-51.892,198.627
					c-18.905,65.779-38.749,131.317-60.738,196.167c-43.716,129.761-94.531,257.268-154.152,380.673
					c-30.454,61.375-62.527,121.987-98.049,180.608c-35.929,58.345-74.359,115.191-116.76,168.981
					c-0.922,1.169-2.617,1.37-3.787,0.448c-1.141-0.899-1.36-2.534-0.515-3.699l0.022-0.03
					c40.134-55.194,77.23-112.444,111.438-171.392c34.377-58.861,65.3-119.667,94.595-181.186
					c29.269-61.554,56.053-124.276,81.405-187.558c25.332-63.308,48.031-127.632,70.361-192.066
					c44.124-129.095,81.334-260.495,114.905-392.785c16.646-66.189,31.958-132.721,46.087-199.508
					c7.118-33.383,13.929-66.834,20.325-100.365l9.197-50.364l4.339-25.218l2.028-12.619c0.597-4.144,1.309-8.589,1.683-12.236
					l0.061-0.603c0.15-1.469,1.462-2.538,2.931-2.388C2985.115,1352.396,2986.163,1353.642,2986.087,1355.057z"/>
			</g>
			<g>
				<path style="fill:#91B3FA;" d="M2487.127,815.416c-7.658-13.254-28.04-7.418-27.456,7.878
					c5.643,147.884,8.294,536.124-102.116,778.17c-179.774,394.106-205.373,948.264,55.162,1147.078
					C2412.717,2748.542,3321.574,2259.525,2487.127,815.416z"/>
				<path style="opacity:0.43;fill:#FFFFFF;" d="M2522.754,1017.545c1.088,4.553,1.622,8.384,2.379,12.485l1.966,12.135
					l3.661,24.286c2.328,16.203,4.406,32.435,6.483,48.668c4.038,32.478,7.672,65.005,11.007,97.565
					c6.548,65.132,11.325,130.432,15.123,195.791c3.891,65.359,5.948,130.827,6.615,196.312
					c0.611,65.481,0.294,130.999-2.177,196.471c-4.688,130.928-16.516,261.726-37.534,391.163
					c-11.194,64.593-24.082,128.929-40.676,192.379c-17.048,63.307-36.795,125.92-61.027,186.809
					c-0.537,1.349-2.065,2.006-3.413,1.47c-1.315-0.523-1.973-1.989-1.509-3.31l0.012-0.034
					c21.725-61.571,40.113-124.192,55.387-187.583c15.457-63.356,27.218-127.553,37.29-191.959
					c10.041-64.431,17.491-129.254,23.473-194.2c5.958-64.964,9.218-130.144,12.124-195.322
					c5.255-130.418,3.528-261.066-1.755-391.539c-2.782-65.238-6.884-130.428-12.135-195.529c-2.573-32.555-5.445-65.09-8.72-97.585
					l-5.294-48.695l-2.894-24.31l-1.579-12.126c-0.581-3.961-1.141-8.236-1.79-11.672l-0.11-0.581
					c-0.267-1.413,0.662-2.776,2.076-3.043C2521.108,1015.332,2522.432,1016.204,2522.754,1017.545z"/>
			</g>
		</g>
		<g>
			<g>
				
					<linearGradient id="SVGID_00000041989911519555811710000018174591435572621739_" gradientUnits="userSpaceOnUse" x1="2261.386" y1="1909.6332" x2="816.9695" y2="3158.313">
					<stop  offset="0" style="stop-color:#FF928E"/>
					<stop  offset="1" style="stop-color:#FE7062"/>
				</linearGradient>
				<path style="fill:url(#SVGID_00000041989911519555811710000018174591435572621739_);" d="M555.915,2968.637v-851.79
					c0-111.913,89.938-202.974,201.844-204.192c335.857-3.657,1028.545-3.839,1595.314,43.922
					c77.341,6.516,137.5,69.907,140.304,147.471l52.971,823.509c3.937,108.926-82.182,199.928-191.16,201.999L750.99,3160.041
					C643.857,3162.076,555.915,3075.788,555.915,2968.637z"/>
				<path style="fill:#FFFFFF;" d="M750.44,2209.008c-1.427,72.478,0.724,187.476,2.486,261.774
					c0.916,38.653,34.852,68.111,73.255,63.61l276.399-32.395c36.821-4.316,62.762-38.252,57.267-74.917l-33.927-226.328
					c-4.817-32.131-32.419-55.902-64.908-55.902H816.062C780.369,2144.85,751.143,2173.321,750.44,2209.008z"/>
				<path style="opacity:0.37;fill:#FFFFFF;" d="M1472.763,2637.931l230.567,24.873c32.263,3.484,59.792-23.125,57.415-55.489
					l-50.405-685.868c-96.654-3.065-191.989-5.299-283.981-6.87v671.67C1426.359,2612.8,1446.365,2635.082,1472.763,2637.931z"/>
				<path style="fill:#FFFFFF;" d="M1567.264,2519.055c0.71,12.337,10.932,21.85,23.131,21.85c0.455,0,0.907-0.016,1.36-0.045
					c12.788-0.74,22.558-11.702,21.803-24.491l-34.765-598.601c-15.59-0.385-31.053-0.733-46.513-1.076L1567.264,2519.055z"/>
				<g>
					
						<linearGradient id="SVGID_00000170245072971698574780000018202694362594376349_" gradientUnits="userSpaceOnUse" x1="-1215.364" y1="1535.7167" x2="-1208.6149" y2="2048.6882" gradientTransform="matrix(1 0 0 1 2077.291 0)">
						<stop  offset="0" style="stop-color:#09005D"/>
						<stop  offset="1" style="stop-color:#1A0F91"/>
					</linearGradient>
					<path style="fill:url(#SVGID_00000170245072971698574780000018202694362594376349_);" d="M878.266,2425.064
						c-4.047,0-7.458-3.14-7.716-7.248l-11.958-188.542c-0.272-4.258,2.959-7.928,7.232-8.199c4.485-0.348,7.927,2.974,8.199,7.233
						l11.958,188.543c0.272,4.257-2.959,7.926-7.233,8.197C878.583,2425.064,878.417,2425.064,878.266,2425.064z"/>
					
						<linearGradient id="SVGID_00000020383908394880800740000018035070715632596379_" gradientUnits="userSpaceOnUse" x1="-1187.8871" y1="1535.3549" x2="-1181.1379" y2="2048.3254" gradientTransform="matrix(1 0 0 1 2077.291 0)">
						<stop  offset="0" style="stop-color:#09005D"/>
						<stop  offset="1" style="stop-color:#1A0F91"/>
					</linearGradient>
					<path style="fill:url(#SVGID_00000020383908394880800740000018035070715632596379_);" d="M902.877,2425.064
						c-4.151,0-7.595-3.291-7.731-7.475l-6.265-192.15c-0.135-4.274,3.216-7.852,7.473-7.989c4.924-0.241,7.837,3.217,7.988,7.474
						l6.266,192.151c0.136,4.273-3.217,7.852-7.474,7.988C903.133,2425.064,902.954,2425.064,902.877,2425.064z"/>
					
						<linearGradient id="SVGID_00000069381852986155256210000012980947783701472916_" gradientUnits="userSpaceOnUse" x1="-1156.2629" y1="1534.9387" x2="-1149.5138" y2="2047.91" gradientTransform="matrix(1 0 0 1 2077.291 0)">
						<stop  offset="0" style="stop-color:#09005D"/>
						<stop  offset="1" style="stop-color:#1A0F91"/>
					</linearGradient>
					<path style="fill:url(#SVGID_00000069381852986155256210000012980947783701472916_);" d="M935.884,2425.064
						c-4.107,0-7.52-3.216-7.716-7.369c-1.509-31.587-9.029-189.328-9.029-192.514c0-4.273,3.458-7.731,7.731-7.731
						c4.242,0,7.701,3.427,7.731,7.656c0.09,4.197,5.934,127.315,8.999,191.865c0.21,4.257-3.08,7.88-7.353,8.077
						C936.126,2425.064,936.005,2425.064,935.884,2425.064z M934.601,2225.182h0.151H934.601z"/>
					
						<linearGradient id="SVGID_00000072241066010060865730000015464832545551420573_" gradientUnits="userSpaceOnUse" x1="-1102.9224" y1="1534.2375" x2="-1096.1731" y2="2047.208" gradientTransform="matrix(1 0 0 1 2077.291 0)">
						<stop  offset="0" style="stop-color:#09005D"/>
						<stop  offset="1" style="stop-color:#1A0F91"/>
					</linearGradient>
					<path style="fill:url(#SVGID_00000072241066010060865730000015464832545551420573_);" d="M987.418,2432.795
						c-8.292,0-15.146-6.569-15.432-14.917c-6.538-186.172-5.39-190.371-4.635-193.149c2.235-8.259,10.811-13.104,18.98-10.855
						c7.565,2.068,12.291,9.408,11.263,16.971c-0.498,11.188,2.959,119.51,5.285,185.946c0.302,8.53-6.372,15.704-14.902,15.99
						C987.794,2432.795,987.599,2432.795,987.418,2432.795z"/>
					
						<linearGradient id="SVGID_00000049932687204984501750000013788916629175423647_" gradientUnits="userSpaceOnUse" x1="-1066.754" y1="1533.761" x2="-1060.0049" y2="2046.7308" gradientTransform="matrix(1 0 0 1 2077.291 0)">
						<stop  offset="0" style="stop-color:#09005D"/>
						<stop  offset="1" style="stop-color:#1A0F91"/>
					</linearGradient>
					<path style="fill:url(#SVGID_00000049932687204984501750000013788916629175423647_);" d="M1020.923,2425.064
						c-4.274,0-7.732-3.457-7.732-7.731v-188.542c0-4.274,3.457-7.731,7.732-7.731c4.273,0,7.729,3.457,7.729,7.731v188.542
						C1028.652,2421.607,1025.196,2425.064,1020.923,2425.064z"/>
					
						<linearGradient id="SVGID_00000123401942172814617160000000791242731759312063_" gradientUnits="userSpaceOnUse" x1="-1044.203" y1="1533.4636" x2="-1037.4537" y2="2046.4336" gradientTransform="matrix(1 0 0 1 2077.291 0)">
						<stop  offset="0" style="stop-color:#09005D"/>
						<stop  offset="1" style="stop-color:#1A0F91"/>
					</linearGradient>
					<path style="fill:url(#SVGID_00000123401942172814617160000000791242731759312063_);" d="M1047.98,2425.064
						c-4.197,0-7.641-3.353-7.73-7.551c-1.481-65.514-4.938-172.523-8.034-185.386c-1.358-2.431-1.343-5.512,0.286-8.018
						c2.341-3.594,7.128-4.56,10.705-2.22c4.213,2.762,8.214,5.376,12.502,195.262c0.09,4.273-3.29,7.806-7.55,7.912H1047.98z"/>
					
						<linearGradient id="SVGID_00000041988513673261387580000017713824086158557372_" gradientUnits="userSpaceOnUse" x1="-1256.1793" y1="1536.2533" x2="-1249.4302" y2="2049.2234" gradientTransform="matrix(1 0 0 1 2077.291 0)">
						<stop  offset="0" style="stop-color:#09005D"/>
						<stop  offset="1" style="stop-color:#1A0F91"/>
					</linearGradient>
					<path style="fill:url(#SVGID_00000041988513673261387580000017713824086158557372_);" d="M836.668,2442.232
						c-8.169,0-14.994-6.402-15.432-14.661l-10.312-197.98c-0.439-8.53,6.115-15.793,14.646-16.247
						c8.093-0.573,15.793,6.116,16.247,14.647l10.312,197.98c0.439,8.531-6.114,15.793-14.644,16.246
						C837.211,2442.232,836.939,2442.232,836.668,2442.232z"/>
				</g>
			</g>
			<g>
				
					<linearGradient id="SVGID_00000096040887940094480030000002575740800597346183_" gradientUnits="userSpaceOnUse" x1="2636.9167" y1="2132.28" x2="936.0157" y2="1194.0833">
					<stop  offset="0" style="stop-color:#FF928E"/>
					<stop  offset="1" style="stop-color:#FE7062"/>
				</linearGradient>
				<path style="fill:url(#SVGID_00000096040887940094480030000002575740800597346183_);" d="M825.183,1802.037v-598.191
					c0-78.593,63.161-142.543,141.749-143.398c235.865-2.568,722.323-2.697,1120.352,30.845
					c54.314,4.576,96.563,49.095,98.531,103.565l37.201,578.33c2.765,76.496-57.714,140.405-134.247,141.859l-1126.59,21.409
					C886.942,1937.885,825.183,1877.287,825.183,1802.037z"/>
				<path style="fill:#FFFFFF;" d="M961.793,1268.568c-1.004,50.9,0.508,131.66,1.745,183.838
					c0.644,27.144,24.476,47.832,51.446,44.671l194.108-22.751c25.858-3.03,44.077-26.862,40.217-52.611l-23.826-158.945
					c-3.383-22.564-22.767-39.258-45.583-39.258h-172.025C982.811,1223.512,962.287,1243.506,961.793,1268.568z"/>
				<path style="opacity:0.37;fill:#FFFFFF;" d="M1469.063,1569.79l161.923,17.467c22.656,2.447,41.99-16.24,40.32-38.968
					l-35.398-481.668c-67.877-2.152-134.829-3.722-199.433-4.825v471.698C1436.475,1552.141,1450.525,1567.79,1469.063,1569.79z"/>
				<path style="fill:#FFFFFF;" d="M1535.429,1486.307c0.499,8.664,7.678,15.344,16.245,15.344c0.319,0,0.638-0.011,0.956-0.033
					c8.981-0.519,15.841-8.218,15.312-17.198l-24.416-420.383c-10.948-0.27-21.806-0.515-32.664-0.756L1535.429,1486.307z"/>
				<g>
					
						<linearGradient id="SVGID_00000130635469277157784180000016251071682899964051_" gradientUnits="userSpaceOnUse" x1="-141.5107" y1="-1405.4285" x2="-276.5031" y2="-986.9521" gradientTransform="matrix(1 0 0 1 2077.291 0)">
						<stop  offset="0" style="stop-color:#09005D"/>
						<stop  offset="1" style="stop-color:#1A0F91"/>
					</linearGradient>
					<path style="fill:url(#SVGID_00000130635469277157784180000016251071682899964051_);" d="M1051.562,1420.299
						c-2.842,0-5.238-2.205-5.42-5.09l-8.397-132.408c-0.191-2.991,2.079-5.568,5.079-5.758c3.15-0.244,5.566,2.088,5.758,5.079
						l8.398,132.41c0.19,2.99-2.079,5.566-5.08,5.757C1051.785,1420.299,1051.668,1420.299,1051.562,1420.299z"/>
					
						<linearGradient id="SVGID_00000133525783498026167920000008722215006841867697_" gradientUnits="userSpaceOnUse" x1="-124.4154" y1="-1399.9142" x2="-259.4077" y2="-981.4382" gradientTransform="matrix(1 0 0 1 2077.291 0)">
						<stop  offset="0" style="stop-color:#09005D"/>
						<stop  offset="1" style="stop-color:#1A0F91"/>
					</linearGradient>
					<path style="fill:url(#SVGID_00000133525783498026167920000008722215006841867697_);" d="M1068.845,1420.299
						c-2.915,0-5.333-2.312-5.429-5.248l-4.4-134.943c-0.095-3.003,2.258-5.514,5.248-5.611c3.458-0.169,5.504,2.259,5.609,5.249
						l4.401,134.943c0.096,3-2.259,5.514-5.249,5.609C1069.026,1420.299,1068.9,1420.299,1068.845,1420.299z"/>
					
						<linearGradient id="SVGID_00000110446454917151139570000013595858385217792937_" gradientUnits="userSpaceOnUse" x1="-104.2943" y1="-1393.4275" x2="-239.2864" y2="-974.9517" gradientTransform="matrix(1 0 0 1 2077.291 0)">
						<stop  offset="0" style="stop-color:#09005D"/>
						<stop  offset="1" style="stop-color:#1A0F91"/>
					</linearGradient>
					<path style="fill:url(#SVGID_00000110446454917151139570000013595858385217792937_);" d="M1092.026,1420.299
						c-2.884,0-5.281-2.258-5.419-5.174c-1.06-22.182-6.342-132.961-6.342-135.199c0-3,2.429-5.429,5.43-5.429
						c2.979,0,5.407,2.407,5.43,5.377c0.063,2.948,4.166,89.411,6.319,134.742c0.148,2.99-2.164,5.535-5.164,5.673
						C1092.196,1420.299,1092.11,1420.299,1092.026,1420.299z M1091.125,1279.926h0.106H1091.125z"/>
					
						<linearGradient id="SVGID_00000050639143657872949870000000893498037006272647_" gradientUnits="userSpaceOnUse" x1="-69.9089" y1="-1382.3374" x2="-204.9014" y2="-963.8607" gradientTransform="matrix(1 0 0 1 2077.291 0)">
						<stop  offset="0" style="stop-color:#09005D"/>
						<stop  offset="1" style="stop-color:#1A0F91"/>
					</linearGradient>
					<path style="fill:url(#SVGID_00000050639143657872949870000000893498037006272647_);" d="M1128.216,1425.728
						c-5.822,0-10.636-4.613-10.837-10.476c-4.591-130.744-3.786-133.693-3.255-135.643c1.569-5.801,7.591-9.204,13.328-7.625
						c5.313,1.452,8.631,6.606,7.91,11.918c-0.349,7.857,2.079,83.929,3.712,130.586c0.212,5.99-4.474,11.028-10.466,11.229
						C1128.481,1425.728,1128.343,1425.728,1128.216,1425.728z"/>
					
						<linearGradient id="SVGID_00000025412964238835987810000003624889517868872101_" gradientUnits="userSpaceOnUse" x1="-46.9675" y1="-1374.926" x2="-181.9598" y2="-956.4499" gradientTransform="matrix(1 0 0 1 2077.291 0)">
						<stop  offset="0" style="stop-color:#09005D"/>
						<stop  offset="1" style="stop-color:#1A0F91"/>
					</linearGradient>
					<path style="fill:url(#SVGID_00000025412964238835987810000003624889517868872101_);" d="M1151.746,1420.299
						c-3.001,0-5.43-2.427-5.43-5.43v-132.408c0-3.001,2.429-5.43,5.43-5.43c3,0,5.428,2.429,5.428,5.43v132.408
						C1157.174,1417.872,1154.747,1420.299,1151.746,1420.299z"/>
					
						<linearGradient id="SVGID_00000147917741465195054430000007694385676335935109_" gradientUnits="userSpaceOnUse" x1="-32.6646" y1="-1370.3218" x2="-167.657" y2="-951.8452" gradientTransform="matrix(1 0 0 1 2077.291 0)">
						<stop  offset="0" style="stop-color:#09005D"/>
						<stop  offset="1" style="stop-color:#1A0F91"/>
					</linearGradient>
					<path style="fill:url(#SVGID_00000147917741465195054430000007694385676335935109_);" d="M1170.748,1420.299
						c-2.948,0-5.366-2.354-5.429-5.302c-1.04-46.01-3.469-121.159-5.641-130.193c-0.955-1.707-0.944-3.871,0.201-5.631
						c1.643-2.523,5.005-3.203,7.518-1.558c2.958,1.939,5.769,3.775,8.78,137.127c0.063,3.001-2.312,5.482-5.303,5.556H1170.748z"/>
					
						<linearGradient id="SVGID_00000163760402930006463970000003854285436614577325_" gradientUnits="userSpaceOnUse" x1="-166.4713" y1="-1413.4744" x2="-301.4635" y2="-994.9985" gradientTransform="matrix(1 0 0 1 2077.291 0)">
						<stop  offset="0" style="stop-color:#09005D"/>
						<stop  offset="1" style="stop-color:#1A0F91"/>
					</linearGradient>
					<path style="fill:url(#SVGID_00000163760402930006463970000003854285436614577325_);" d="M1022.348,1432.356
						c-5.737,0-10.53-4.496-10.837-10.296l-7.242-139.037c-0.308-5.991,4.295-11.092,10.285-11.41
						c5.683-0.402,11.092,4.296,11.409,10.286l7.243,139.037c0.308,5.991-4.293,11.091-10.285,11.409
						C1022.73,1432.356,1022.539,1432.356,1022.348,1432.356z"/>
				</g>
			</g>
		</g>
		<g>
			<g>
				
					<linearGradient id="SVGID_00000156587216307953673270000013427813869005512380_" gradientUnits="userSpaceOnUse" x1="1574.7455" y1="1417.4663" x2="600.9554" y2="2663.3455">
					<stop  offset="0" style="stop-color:#A22B25"/>
					<stop  offset="1" style="stop-color:#C0423C"/>
				</linearGradient>
				<path style="fill:url(#SVGID_00000156587216307953673270000013427813869005512380_);" d="M1491.929,1897.834l-39.606,21.313
					c-47.5,28.92-90.004,44.201-128.255,49.94c-119.432,17.92-197.274-57.438-255.279-103.151
					c-76.582-60.353-136.178-30.991-136.178-30.991l81.671,155.871c121.965,114.996,247.016,89.458,325.852,52.194
					c50.185-23.721,81.649-52.194,81.649-52.194C1511.506,1937.316,1491.929,1897.834,1491.929,1897.834z"/>
				
					<linearGradient id="SVGID_00000083800965049390086760000009879218408029494442_" gradientUnits="userSpaceOnUse" x1="1686.6766" y1="1743.032" x2="1138.2059" y2="2444.7522">
					<stop  offset="0" style="stop-color:#A22B25"/>
					<stop  offset="1" style="stop-color:#C0423C"/>
				</linearGradient>
				<path style="fill:url(#SVGID_00000083800965049390086760000009879218408029494442_);" d="M1608.607,1953.646
					c-2.557-8.5-8.841-15.376-17.077-18.688l-80.379-32.324c0,0-1.213-10.309,16.983-17.314
					c18.198-7.005,13.943-27.385,13.943-27.385s-24.86,11.34-61.255,29.327c-20.814,10.286-32.491,28.447-38.684,42.118
					l20.692,27.212c49.54,14.882,99.669,17.728,150.225,11.825L1608.607,1953.646z"/>
			</g>
			
				<linearGradient id="SVGID_00000148618901344533589930000010050186989001382785_" gradientUnits="userSpaceOnUse" x1="-48.6381" y1="3016.0667" x2="-12.646" y2="3191.1199" gradientTransform="matrix(-1 0 0 1 990.5665 0)">
				<stop  offset="0" style="stop-color:#4F52FF"/>
				<stop  offset="1" style="stop-color:#4042E2"/>
			</linearGradient>
			<path style="fill:url(#SVGID_00000148618901344533589930000010050186989001382785_);" d="M915.059,3089.676
				c0,0-6.118,34.638-9.118,68.926c-1.173,13.401,9.159,25.036,22.599,25.596c45.661,1.902,143.334,5.599,178.381,4.036
				c5.269-0.235,8.713-5.629,6.763-10.53l0,0c-1.634-4.106-4.785-7.426-8.8-9.271l-161.337-74.15L915.059,3089.676z"/>
			
				<linearGradient id="SVGID_00000094591317985770777050000006357654923101803165_" gradientUnits="userSpaceOnUse" x1="3935.8562" y1="3089.5332" x2="3988.3337" y2="3089.5332" gradientTransform="matrix(1 0 0 1 -3025.8091 0)">
				<stop  offset="0" style="stop-color:#FEBBBA"/>
				<stop  offset="1" style="stop-color:#FF928E"/>
			</linearGradient>
			<path style="fill:url(#SVGID_00000094591317985770777050000006357654923101803165_);" d="M910.047,3069.323l4.916,41.432
				c0,0,28.261,13.156,47.562-1.658l-11.704-46.171L910.047,3069.323z"/>
			
				<linearGradient id="SVGID_00000053531153122189702760000007311302358049808801_" gradientUnits="userSpaceOnUse" x1="3694.8369" y1="1694.7997" x2="3956.6697" y2="2832.8638" gradientTransform="matrix(1 0 0 1 -3025.8091 0)">
				<stop  offset="0" style="stop-color:#09005D"/>
				<stop  offset="1" style="stop-color:#1A0F91"/>
			</linearGradient>
			<path style="fill:url(#SVGID_00000053531153122189702760000007311302358049808801_);" d="M902.157,2263.078
				c-2.124,11.218,3.81,587.602,60.368,833.442c0.922,4.012,6.772,11.885,4.754,15.338c-4.908,8.395-41.048,6.038-61.429,6.749
				c-6.311,0.22-9.701-7.188-11.482-13.469c-16.167-57.038-93.635-342.82-103.742-615.818c-11.291-305.049,0-10.387,0-10.387
				l-5.018-193.261L902.157,2263.078z"/>
			
				<linearGradient id="SVGID_00000058580821209783032040000004195269057430703239_" gradientUnits="userSpaceOnUse" x1="239.8907" y1="3025.1843" x2="238.2547" y2="3198.6021" gradientTransform="matrix(-1 0 0 1 990.5665 0)">
				<stop  offset="0" style="stop-color:#4F52FF"/>
				<stop  offset="1" style="stop-color:#4042E2"/>
			</linearGradient>
			<path style="fill:url(#SVGID_00000058580821209783032040000004195269057430703239_);" d="M729.469,3107.746
				c0,0-9.74,17.487-19.168,63.953c-1.703,8.391,4.16,16.423,12.682,17.261c15.077,1.482,38.288,3.389,56.881,3.261
				c8.571-0.059,15.26-7.522,14.227-16.032c-2.059-16.96-8.475-44.786-28.296-66.475L729.469,3107.746z"/>
			
				<linearGradient id="SVGID_00000063618023692686387360000002624833430862056359_" gradientUnits="userSpaceOnUse" x1="3746.7239" y1="3086.842" x2="3792.0344" y2="3086.842" gradientTransform="matrix(1 0 0 1 -3025.8091 0)">
				<stop  offset="0" style="stop-color:#FEBBBA"/>
				<stop  offset="1" style="stop-color:#FF928E"/>
			</linearGradient>
			<path style="fill:url(#SVGID_00000063618023692686387360000002624833430862056359_);" d="M720.915,3054.456l11.487,62.656
				c0,0,11.356,8.448,33.824,2.324l-5.483-67.414L720.915,3054.456z"/>
			
				<linearGradient id="SVGID_00000128481920993475551270000001256021962672922540_" gradientUnits="userSpaceOnUse" x1="3607.7659" y1="1694.5605" x2="3872.9705" y2="2847.28" gradientTransform="matrix(1 0 0 1 -3025.8091 0)">
				<stop  offset="0" style="stop-color:#09005D"/>
				<stop  offset="1" style="stop-color:#1A0F91"/>
			</linearGradient>
			<path style="fill:url(#SVGID_00000128481920993475551270000001256021962672922540_);" d="M693.305,2285.558
				c-46.256,291.39,6.613,742.547,25.598,826.474c1.163,5.138,5.136,9.074,10.125,9.938c8.475,1.466,22.426,2.663,36.18-1.506
				c4.739-1.438,8.068-5.9,8.261-11.046c2.547-67.853-2.037-484.403,41.063-649.025c2.184-8.342,7.066-15.618,13.819-20.629
				l70.929-57.807l1.319-124.644L693.305,2285.558z"/>
			
				<linearGradient id="SVGID_00000114069931326495932400000010329274681739587770_" gradientUnits="userSpaceOnUse" x1="957.9053" y1="1905.1006" x2="530.4299" y2="2364.0737">
				<stop  offset="0" style="stop-color:#4F52FF"/>
				<stop  offset="1" style="stop-color:#4042E2"/>
			</linearGradient>
			<path style="fill:url(#SVGID_00000114069931326495932400000010329274681739587770_);" d="M958.344,1818.08
				c-121.913-2.014-256.43,32.011-256.43,32.011c-29.955,174.785-17.927,368.493-11.692,432.283
				c1.278,13.077-5.717,26.922,7.254,29.017c63.788,10.305,164.053-0.181,195.209-9.233c11.386-3.308,9.451-15.431,11.871-27.039
				c20.917-100.326,80.731-321.604,80.731-321.604c28.996,37.3,69.909,89.493,130.393,103.387
				c-30.823-35.729,28.298-110.656,21.987-137.53C1082.985,1857.935,995.945,1818.702,958.344,1818.08z"/>
			
				<linearGradient id="SVGID_00000159457514989513259220000011885821937262959748_" gradientUnits="userSpaceOnUse" x1="875.6132" y1="1701.9642" x2="823.8658" y2="1935.9513">
				<stop  offset="0" style="stop-color:#A22B25"/>
				<stop  offset="1" style="stop-color:#C0423C"/>
			</linearGradient>
			<path style="fill:url(#SVGID_00000159457514989513259220000011885821937262959748_);" d="M834.856,1719.106l-38.79,112.18
				c-0.643,1.859,0.121,3.916,1.842,4.868c10.574,5.846,48.67,22.745,94.579-6.362c4.782-3.032,8.038-7.977,8.764-13.593
				l12.561-97.093H834.856z"/>
			<g>
				
					<linearGradient id="SVGID_00000054981201164504697620000006909492238384158139_" gradientUnits="userSpaceOnUse" x1="-3015.1382" y1="218.2783" x2="-2853.147" y2="508.5123" gradientTransform="matrix(0.746 -0.6659 0.6659 0.746 2100.5264 -803.1727)">
					<stop  offset="0" style="stop-color:#A22B25"/>
					<stop  offset="1" style="stop-color:#C0423C"/>
				</linearGradient>
				<path style="fill:url(#SVGID_00000054981201164504697620000006909492238384158139_);" d="M919.258,1615.224
					c0,0,42.597,80.183,37.137,112.573c-5.461,32.39-58.252,30.064-104.35,3.758l-32.214-86.58L919.258,1615.224z"/>
				
					<linearGradient id="SVGID_00000072997263437129899090000010795783290595358592_" gradientUnits="userSpaceOnUse" x1="-2586.5886" y1="883.5499" x2="-2555.5901" y2="1060.3562" gradientTransform="matrix(0.746 -0.6659 0.6659 0.746 2100.5264 -803.1727)">
					<stop  offset="0" style="stop-color:#09005D"/>
					<stop  offset="1" style="stop-color:#1A0F91"/>
				</linearGradient>
				<path style="fill:url(#SVGID_00000072997263437129899090000010795783290595358592_);" d="M854.082,1689.037
					c1.874-0.83,2.565-3.123,1.442-4.838c-3.412-5.213-9.809-15.849-11.851-25.161c0,0-7.657-4.905,19.491-11.402
					c14.781-3.538,40.987-6.465,52.504-17.093c12.888-11.893-10.874-34.362-20.866-40.395c-13.185-7.961-29.239-12.671-44.11-8.659
					c-7.176,1.936-13.67,5.772-20.062,9.564c-10.887,6.458-22.157,13.276-29.079,23.874c-4.482,6.861-6.83,14.865-8.98,22.773
					c-3.09,11.361-5.917,22.997-5.381,34.759c1.429,31.335,38.153,59.409,67.686,62.839c2.415,0.281,4.288-2.105,3.496-4.404
					l-12.072-35.091c-0.56-1.63,0.219-3.418,1.795-4.116L854.082,1689.037z"/>
				
					<linearGradient id="SVGID_00000106828181296855491330000003558289067603841666_" gradientUnits="userSpaceOnUse" x1="-3046.1169" y1="235.5644" x2="-2884.126" y2="525.7984" gradientTransform="matrix(0.746 -0.6659 0.6659 0.746 2100.5264 -803.1727)">
					<stop  offset="0" style="stop-color:#A22B25"/>
					<stop  offset="1" style="stop-color:#C0423C"/>
				</linearGradient>
				<path style="fill:url(#SVGID_00000106828181296855491330000003558289067603841666_);" d="M858.934,1694.017
					c0,0-30.329-20.809-32.545-3.285c-2.216,17.523,27.311,25.382,41.936,18.849L858.934,1694.017z"/>
			</g>
			<g>
				
					<linearGradient id="SVGID_00000121266750904376627740000014622778148202427022_" gradientUnits="userSpaceOnUse" x1="773.8434" y1="1596.413" x2="1025.8287" y2="1677.4083">
					<stop  offset="0" style="stop-color:#4F52FF"/>
					<stop  offset="1" style="stop-color:#4042E2"/>
				</linearGradient>
				<path style="fill:url(#SVGID_00000121266750904376627740000014622778148202427022_);" d="M934.776,1595.557
					c-62.229-117.544-223.518-10.76-148.456,88.26C842.131,1646.708,905.194,1591.545,934.776,1595.557z"/>
			</g>
			
				<linearGradient id="SVGID_00000031907464251444760600000005948706259415121585_" gradientUnits="userSpaceOnUse" x1="780.0263" y1="1577.0461" x2="1032.0114" y2="1658.0414">
				<stop  offset="0" style="stop-color:#4F52FF"/>
				<stop  offset="1" style="stop-color:#4042E2"/>
			</linearGradient>
			<path style="fill:url(#SVGID_00000031907464251444760600000005948706259415121585_);" d="M837.577,1645.349l111.744-3.456
				c2.838-0.088,5.43-1.658,6.806-4.142c10.011-18.077,24.658-29.593,42.974-35.918c2.317-0.8,1.837-4.217-0.608-4.383
				l-68.508-4.659c-0.076-0.005-0.153-0.005-0.229,0.001c-34.143,2.625-64.368,23.167-93.2,50.078
				C835.593,1643.767,836.262,1645.39,837.577,1645.349z"/>
			
				<linearGradient id="SVGID_00000044864948545759977130000000239347572221387174_" gradientUnits="userSpaceOnUse" x1="837.3339" y1="1792.8041" x2="409.8588" y2="2251.7769">
				<stop  offset="0" style="stop-color:#4F52FF"/>
				<stop  offset="1" style="stop-color:#4042E2"/>
			</linearGradient>
			<path style="fill:url(#SVGID_00000044864948545759977130000000239347572221387174_);" d="M715.721,2028.022
				c68.232-76.603,61.321-135.575-15.693-178.027c0,0-127.655,86.737-148.649,196.709c24.12,1.777,68.012,8.05,110.972,29.743
				C671.793,2024.519,715.721,2028.022,715.721,2028.022z"/>
			
				<linearGradient id="SVGID_00000101808766983930144070000012232823979997978770_" gradientUnits="userSpaceOnUse" x1="5647.3848" y1="2132.0874" x2="5981.8877" y2="2132.0874" gradientTransform="matrix(1 0 0 1 -5098.915 0)">
				<stop  offset="0" style="stop-color:#A22B25"/>
				<stop  offset="1" style="stop-color:#C0423C"/>
			</linearGradient>
			<path style="fill:url(#SVGID_00000101808766983930144070000012232823979997978770_);" d="M864.005,2106.852
				c0,0-143.324,81-191.685,11.836c-10.041-14.361-12.441-28.634-9.968-42.242c-42.961-21.692-86.852-27.966-110.972-29.743
				c-6.33,33.153-2.983,68.413,16.498,104.051c84.71,154.959,315.095-8.564,315.095-8.564L864.005,2106.852z"/>
			<g>
				
					<linearGradient id="SVGID_00000155140358354472388060000000915776324650460289_" gradientUnits="userSpaceOnUse" x1="816.0974" y1="2194.8906" x2="1278.4471" y2="1867.5336">
					<stop  offset="0" style="stop-color:#09005D"/>
					<stop  offset="1" style="stop-color:#1A0F91"/>
				</linearGradient>
				<path style="fill:url(#SVGID_00000155140358354472388060000000915776324650460289_);" d="M846.786,2209.326l78.221-273.167
					c0.888-3.101,3.533-5.363,6.737-5.736c14.172-1.653,55.238-6.295,102.653-10.306c57.113-4.831,123.437-8.745,163.071-5.415
					c5.634,0.473,9.039,6.433,6.533,11.502c-22.537,45.597-115.245,231.076-161.67,291.837c-1.538,2.013-3.916,3.19-6.45,3.166
					l-181.486-1.688C849.113,2219.469,845.331,2214.403,846.786,2209.326z"/>
				<path style="fill:#7D97F4;" d="M1042.51,1896.434l56.713-9.45c3.02-0.503,5.494,2.383,4.534,5.291l-5.614,17.011
					c-0.488,1.481-1.78,2.553-3.326,2.759l-54.574,7.29c-2.823,0.377-5.151-2.188-4.502-4.961l3.476-14.853
					C1039.59,1897.922,1040.889,1896.703,1042.51,1896.434z"/>
				<path style="fill:#7D97F4;" d="M1000.045,1944.445l4.672-24.335c0.469-2.441,2.483-4.285,4.956-4.536l114.545-11.623
					c3.856-0.392,6.943,3.142,6.038,6.909l-7.283,30.325c-0.583,2.426-2.695,4.179-5.187,4.304l-111.935,5.635
					C1002.21,1951.307,999.358,1948.028,1000.045,1944.445z"/>
				
					<linearGradient id="SVGID_00000040533069052606897980000002407602513475237263_" gradientUnits="userSpaceOnUse" x1="5957.0522" y1="2097.0151" x2="6061.2642" y2="2097.0151" gradientTransform="matrix(1 0 0 1 -5098.915 0)">
					<stop  offset="0" style="stop-color:#A22B25"/>
					<stop  offset="1" style="stop-color:#C0423C"/>
				</linearGradient>
				<path style="fill:url(#SVGID_00000040533069052606897980000002407602513475237263_);" d="M865.683,2143.328
					c0,0-10.897-44.805-6.501-60.701c4.395-15.896,12.911-36.333,41.297-31.792c28.386,4.541,61.87,16.499,61.87,16.499
					s-1.692,20.706-23.265,14.025l13.378,10.352c0,0-1.911,16.579-20.134,7.721l12.442,13.728c0,0-7.825,13.615-21.233,4.883
					C910.131,2109.31,903.704,2148.724,865.683,2143.328z"/>
			</g>
			<g>
				
					<linearGradient id="SVGID_00000092419457463143265040000000951832312817808771_" gradientUnits="userSpaceOnUse" x1="850.1314" y1="1475.9476" x2="813.0085" y2="1752.6823">
					<stop  offset="0" style="stop-color:#4F52FF"/>
					<stop  offset="1" style="stop-color:#4042E2"/>
				</linearGradient>
				<path style="fill:url(#SVGID_00000092419457463143265040000000951832312817808771_);" d="M820.263,1972.767
					c-8.947,0.719-84.618,3.146-84.618,3.146l3.054,76.181l39.201,22.109l42.363-22.109V1972.767z"/>
				
					<linearGradient id="SVGID_00000055689108804316616680000016632498865946773405_" gradientUnits="userSpaceOnUse" x1="767.2521" y1="2022.2477" x2="966.3653" y2="1543.0251">
					<stop  offset="0" style="stop-color:#4F52FF"/>
					<stop  offset="1" style="stop-color:#4042E2"/>
				</linearGradient>
				<polygon style="fill:url(#SVGID_00000055689108804316616680000016632498865946773405_);" points="826.272,1972.767 
					735.814,1975.912 732.116,2005.14 779.194,2017.37 829.235,1995.068 				"/>
			</g>
		</g>
		<g>
			<g>
				<g>
					
						<linearGradient id="SVGID_00000055684615954182628220000004288215945093999234_" gradientUnits="userSpaceOnUse" x1="9062.4502" y1="3202.489" x2="9169.4316" y2="3202.489" gradientTransform="matrix(-1 0 0 1 12256.6602 0)">
						<stop  offset="0" style="stop-color:#09005D"/>
						<stop  offset="1" style="stop-color:#1A0F91"/>
					</linearGradient>
					<path style="fill:url(#SVGID_00000055684615954182628220000004288215945093999234_);" d="M3179.318,3164.792
						c0,0,11.887,18.739,14.878,71.202c0.279,4.888-3.594,9.053-8.49,9.053h-92.976c-3.741,0-6.411-3.668-5.213-7.212
						c5.448-16.125,21.922-55.439,58.677-77.905L3179.318,3164.792z"/>
					
						<linearGradient id="SVGID_00000003090178115784280730000017673721437379384470_" gradientUnits="userSpaceOnUse" x1="9073.3027" y1="3152.7761" x2="9116.6904" y2="3152.7761" gradientTransform="matrix(-1 0 0 1 12256.6602 0)">
						<stop  offset="0" style="stop-color:#FEBBBA"/>
						<stop  offset="1" style="stop-color:#FF928E"/>
					</linearGradient>
					<path style="fill:url(#SVGID_00000003090178115784280730000017673721437379384470_);" d="M3183.358,3129.242l-5.258,44.094
						c-0.454,3.804-3.436,6.849-7.241,7.288c-5.085,0.585-12.477,0.999-19.66-0.186c-6.529-1.077-11.228-6.892-11.228-13.511
						v-42.573L3183.358,3129.242z"/>
					
						<linearGradient id="SVGID_00000175318480716096475720000001226346957253567678_" gradientUnits="userSpaceOnUse" x1="9289.958" y1="3200.7786" x2="9457.8164" y2="3200.7786" gradientTransform="matrix(-1 0 0 1 12256.6602 0)">
						<stop  offset="0" style="stop-color:#09005D"/>
						<stop  offset="1" style="stop-color:#1A0F91"/>
					</linearGradient>
					<path style="fill:url(#SVGID_00000175318480716096475720000001226346957253567678_);" d="M2949.281,3159.931
						c0,0,17.796,27.661,17.415,65.629c-0.09,8.943-7.577,16.066-16.521,16.066h-144.4c-6.762,0-9.507-8.688-3.973-12.574
						c27.324-19.188,81.031-55.033,119.875-69.121H2949.281z"/>
					
						<linearGradient id="SVGID_00000003789778847536779800000012009431430446938254_" gradientUnits="userSpaceOnUse" x1="9292.5088" y1="3133.51" x2="9335.6572" y2="3133.51" gradientTransform="matrix(-1 0 0 1 12256.6602 0)">
						<stop  offset="0" style="stop-color:#FEBBBA"/>
						<stop  offset="1" style="stop-color:#FF928E"/>
					</linearGradient>
					<path style="fill:url(#SVGID_00000003789778847536779800000012009431430446938254_);" d="M2964.152,3112.312l-11.216,54.458
						c-1.254,6.091-7.213,10.186-13.283,8.832c-3.691-0.823-8.043-2.401-12.695-5.309c-4.421-2.764-6.661-8.022-5.758-13.157
						l11.603-65.975L2964.152,3112.312z"/>
					
						<linearGradient id="SVGID_00000006686422578827576760000008851311649816330908_" gradientUnits="userSpaceOnUse" x1="9046.3438" y1="2750.7668" x2="9340.5049" y2="2750.7668" gradientTransform="matrix(-1 0 0 1 12256.6602 0)">
						<stop  offset="0" style="stop-color:#09005D"/>
						<stop  offset="1" style="stop-color:#1A0F91"/>
					</linearGradient>
					<path style="fill:url(#SVGID_00000006686422578827576760000008851311649816330908_);" d="M3162.756,2355.161
						c0,0,39,34.384,46.34,75.752c7.34,41.368-20.795,713.735-20.795,713.735s-38.999,6.488-59.103-5.694
						c0,0-23.844-436.361-41.969-537.193c0,0-95.05,452.013-121.385,533.686c0,0-37.572,4.57-49.688-2.579
						c0,0,24.897-585.935,56.183-690.105L3162.756,2355.161z"/>
					<path style="fill:#666694;" d="M3088.358,2587.253c-0.326,0-0.653-0.038-0.989-0.125c-2.094-0.547-3.342-2.684-2.795-4.778
						l16.567-63.543c0.25-0.951,0.845-1.772,1.671-2.305l35.793-22.963c1.796-1.162,4.226-0.648,5.407,1.181
						c1.162,1.82,0.634,4.24-1.181,5.407l-34.507,22.137l-16.182,62.065C3091.691,2586.087,3090.096,2587.253,3088.358,2587.253z"/>
					
						<linearGradient id="SVGID_00000114039737327239047210000001773284021824826500_" gradientUnits="userSpaceOnUse" x1="10062.1191" y1="2322.1565" x2="9720.3457" y2="2155.1833" gradientTransform="matrix(-1 0 0 1 12256.6602 0)">
						<stop  offset="0" style="stop-color:#4F52FF"/>
						<stop  offset="1" style="stop-color:#4042E2"/>
					</linearGradient>
					<path style="fill:url(#SVGID_00000114039737327239047210000001773284021824826500_);" d="M2777.887,1966.654
						c164.179-13.63,207.09,20.346,207.09,20.346l-78.898,124.558c0,0-161.322-3.187-276.915-92.28
						c21.633-23.298,36.658-49.046,46.294-69.095C2705.265,1962.57,2739.591,1969.833,2777.887,1966.654z"/>
					
						<linearGradient id="SVGID_00000132786169892695561000000015555591985750597516_" gradientUnits="userSpaceOnUse" x1="9581.2031" y1="1870.0566" x2="9741.5654" y2="1870.0566" gradientTransform="matrix(-1 0 0 1 12256.6602 0)">
						<stop  offset="0" style="stop-color:#FEBBBA"/>
						<stop  offset="1" style="stop-color:#FF928E"/>
					</linearGradient>
					<path style="fill:url(#SVGID_00000132786169892695561000000015555591985750597516_);" d="M2520.786,1725.663
						c0.221-5.261,7.351-6.693,9.586-1.924l20.95,44.703c4.047,8.638,5.345,18.31,3.717,27.709l-7.348,26.019
						c-2.198,12.689,1.117,25.69,9.16,35.747c19.249,24.064,60.245,68.015,118.607,92.266
						c-9.636,20.049-24.661,45.796-46.294,69.095c-42.414-32.689-78.68-76.93-98.55-136.844
						c-9.52-2.924-15.881-11.887-15.503-21.839L2520.786,1725.663z"/>
					
						<linearGradient id="SVGID_00000020371902007187057160000002943949430249532076_" gradientUnits="userSpaceOnUse" x1="9399.1592" y1="2153.7468" x2="9311.377" y2="2985.0962" gradientTransform="matrix(-1 0 0 1 12256.6602 0)">
						<stop  offset="0" style="stop-color:#4F52FF"/>
						<stop  offset="1" style="stop-color:#4042E2"/>
					</linearGradient>
					<path style="fill:url(#SVGID_00000020371902007187057160000002943949430249532076_);" d="M2723.846,2038.869
						c57.797-62.279,167.887-90.416,231.626-101.974c27.924-5.063,55.45,10.475,65.344,37.074
						c28.683,77.107,106.696,277.71,121.816,312.188c12.406,28.285,25.359,55.91,33.589,73.181
						c4.917,10.318,0.62,22.665-9.676,27.627c-53.627,25.848-150.122,55.093-189.242,66.502c-8.605,2.51-17.173-3.951-17.173-12.914
						c0-7.601-2.066-15.062-5.978-21.579l-148.157-246.894c-92.346,102.391-173.216,111.754-235.34,89.343
						c10.445-32.284,17.281-64.627,20.56-97.031C2682.993,2148.669,2723.846,2038.869,2723.846,2038.869z"/>
					
						<linearGradient id="SVGID_00000126286802475442894810000002746625791280278657_" gradientUnits="userSpaceOnUse" x1="-13167.3281" y1="18090.9316" x2="-13366.4424" y2="18229.3008" gradientTransform="matrix(-1 0 0 1 12256.6602 0)">
						<stop  offset="0" style="stop-color:#FEBBBA"/>
						<stop  offset="1" style="stop-color:#FF928E"/>
					</linearGradient>
					<path style="fill:url(#SVGID_00000126286802475442894810000002746625791280278657_);" d="M2413.682,2129.097l30.003-17.539
						c53.621,36.825,110.839,59.12,147.531,52.833c-3.279,32.404-10.114,64.748-20.56,97.031
						C2488.813,2231.898,2413.682,2129.097,2413.682,2129.097z"/>
					
						<linearGradient id="SVGID_00000156565147534771904930000009022297712173819570_" gradientUnits="userSpaceOnUse" x1="-13145.4736" y1="18122.3652" x2="-13344.5879" y2="18260.7324" gradientTransform="matrix(-1 0 0 1 12256.6602 0)">
						<stop  offset="0" style="stop-color:#FEBBBA"/>
						<stop  offset="1" style="stop-color:#FF928E"/>
					</linearGradient>
					<path style="fill:url(#SVGID_00000156565147534771904930000009022297712173819570_);" d="M2271.189,2135.41
						c18.659-10.154,74.024-18.888,74.024-18.888s63.639-37.232,81.959-44.561c15.216-6.087,21.764,16.67,23.547,24.557
						c0.364,1.609,0.53,2.599,0.53,2.599l-2.354,15.135l-64.29,28.573c-13.762,6.116-28.946,8.319-43.88,6.364l-68.644-8.98
						c-1.102-0.145-1.986-0.983-2.19-2.076C2269.688,2137.04,2270.212,2135.941,2271.189,2135.41z"/>
					
						<linearGradient id="SVGID_00000172433505032540067930000011122217404290381193_" gradientUnits="userSpaceOnUse" x1="9554.5039" y1="1644.4967" x2="9218.917" y2="2261.1038" gradientTransform="matrix(-1 0 0 1 12256.6602 0)">
						<stop  offset="0" style="stop-color:#FEBBBA"/>
						<stop  offset="1" style="stop-color:#FF928E"/>
					</linearGradient>
					<path style="fill:url(#SVGID_00000172433505032540067930000011122217404290381193_);" d="M2867.801,1822.516l49.233,120.14
						c0,0-56.569,39.155-102.081,35.428l-24.571-108.027L2867.801,1822.516z"/>
					<g>
						
							<linearGradient id="SVGID_00000014602369012343827980000015723076161206112403_" gradientUnits="userSpaceOnUse" x1="7534.5112" y1="9218.7842" x2="7386.2012" y2="9414.9863" gradientTransform="matrix(-0.817 -0.5767 -0.5767 0.817 14280.0889 -1428.4956)">
							<stop  offset="0" style="stop-color:#FEBBBA"/>
							<stop  offset="1" style="stop-color:#FF928E"/>
						</linearGradient>
						<path style="fill:url(#SVGID_00000014602369012343827980000015723076161206112403_);" d="M2784.635,1740.614
							c-1.128,1.597-35.617,126.195-35.617,126.195l71.562,18.181l50.234-113.236
							C2870.813,1771.754,2803.512,1713.869,2784.635,1740.614z"/>
						
							<linearGradient id="SVGID_00000182512835254568739790000013134837146537425794_" gradientUnits="userSpaceOnUse" x1="7421.2451" y1="9266.1133" x2="7598.4038" y2="9266.1133" gradientTransform="matrix(-0.817 -0.5767 -0.5767 0.817 14280.0889 -1428.4956)">
							<stop  offset="0" style="stop-color:#09005D"/>
							<stop  offset="1" style="stop-color:#1A0F91"/>
						</linearGradient>
						<path style="fill:url(#SVGID_00000182512835254568739790000013134837146537425794_);" d="M2843.866,1788.958l-21.776,61.68
							c-0.28,0.791-0.653,1.522-1.136,2.209c-2.955,4.199-14.182,17.898-27.497,5.558c-12.083-11.198-23.276-21.237-33.614-23.06
							c-4.642-0.818-9.138,2.015-10.394,6.558c-3.13,11.321-9.714,36.963-12.034,60.114c-0.471,4.698,2.773,8.944,7.412,9.825
							c13.977,2.654,43.611,7.428,68.352,5.683c3.353-0.236,6.303-2.247,7.701-5.304c6.818-14.898,27.708-60.101,35.477-71.798
							c7.292-10.977,25.17-10.67,32.667-10.005c2.458,0.218,4.875-0.574,6.731-2.201c6.559-5.75,19.043-20.428,1.482-38
							c-3.675-3.678-3.576-9.61,0.211-13.172c7.541-7.09,15.606-19.665,3.042-35.261c-12.77-15.853-29.627-13.329-39.956-9.561
							c-4.176,1.524-8.732-0.241-11.001-4.064c-1.292-2.175-3.547-3.822-7.456-3.486c-5.267,0.453-9.696-3.943-9.602-9.228
							c0.183-10.156-3.453-22.986-21.07-28.469c-31.261-9.73-50.756,20.471-52.687,43.007
							c-1.931,22.535,32.562,31.157,52.844,29.637c15.421-1.155,26.871,14.13,31.473,21.523
							C2844.493,1783.485,2844.784,1786.356,2843.866,1788.958z"/>
						
							<linearGradient id="SVGID_00000166656759496574762670000008720852831914405043_" gradientUnits="userSpaceOnUse" x1="7317.2944" y1="9374.1611" x2="7436.252" y2="9252.1143" gradientTransform="matrix(-0.817 -0.5767 -0.5767 0.817 14280.0889 -1428.4956)">
							<stop  offset="0" style="stop-color:#FEBBBA"/>
							<stop  offset="1" style="stop-color:#FF928E"/>
						</linearGradient>
						<path style="fill:url(#SVGID_00000166656759496574762670000008720852831914405043_);" d="M2848.203,1862.802
							c0,0,5.05-39.123,21.325-41.04c16.275-1.917,32.116,11.459,15.935,33.418
							C2865.336,1882.495,2848.203,1862.802,2848.203,1862.802z"/>
					</g>
				</g>
			</g>
			<g>
				
					<linearGradient id="SVGID_00000175312755191689771830000017750394009620130980_" gradientUnits="userSpaceOnUse" x1="2134.1089" y1="1808.8696" x2="1647.7352" y2="2630.5098">
					<stop  offset="0" style="stop-color:#E1473D"/>
					<stop  offset="1" style="stop-color:#E9605A"/>
				</linearGradient>
				
					<circle style="fill:url(#SVGID_00000175312755191689771830000017750394009620130980_);" cx="2164.977" cy="1756.724" r="402.502"/>
				
					<linearGradient id="SVGID_00000104680083779129984140000003422640791341736329_" gradientUnits="userSpaceOnUse" x1="2652.1047" y1="987.5735" x2="2438.3672" y2="1325.0546">
					<stop  offset="0" style="stop-color:#FF928E"/>
					<stop  offset="1" style="stop-color:#FE7062"/>
				</linearGradient>
				
					<circle style="fill:url(#SVGID_00000104680083779129984140000003422640791341736329_);" cx="2164.977" cy="1756.724" r="389.119"/>
				<path style="opacity:0.78;fill:#FFFFFF;" d="M1849.938,1590.971c-1.131-0.041-2.271-0.339-3.33-0.925
					c-3.617-1.994-4.93-6.542-2.935-10.151c67.281-122.027,195.517-194.679,334.667-189.605c22.206,0.81,44.372,3.62,65.879,8.363
					c4.033,0.885,6.583,4.871,5.694,8.908c-0.888,4.028-4.872,6.623-8.907,5.687c-20.634-4.543-41.903-7.24-63.211-8.017
					c-133.478-4.867-256.49,64.827-321.033,181.877C1855.354,1589.663,1852.669,1591.071,1849.938,1590.971z"/>
				
					<ellipse transform="matrix(0.7071 -0.7071 0.7071 0.7071 -611.9024 2053.7471)" style="opacity:0.78;fill:#FFFFFF;" cx="2173.141" cy="1765.505" rx="329.341" ry="329.341"/>
				<g>
					
						<linearGradient id="SVGID_00000059998393401887810340000001405387961070044290_" gradientUnits="userSpaceOnUse" x1="1750.4608" y1="2473.8213" x2="2087.9414" y2="1920.3533">
						<stop  offset="0" style="stop-color:#FF928E"/>
						<stop  offset="1" style="stop-color:#FE7062"/>
					</linearGradient>
					<path style="fill:url(#SVGID_00000059998393401887810340000001405387961070044290_);" d="M2131.921,2009.001l1.306-35.807
						c-37.273-2.856-73.872-13.012-99.677-25.446c-9.215-4.44-13.605-15.123-10.555-24.887l10.313-33.021
						c3.783-12.114,17.32-17.957,28.839-12.627c25.614,11.853,57.419,21.651,92.052,22.914c35.953,1.311,63.21-9.901,64.121-34.885
						c0.822-22.546-19.407-36.706-68.888-51.933c-70.584-22.1-120.64-55.046-118.351-117.811
						c2.067-56.674,45.083-98.428,117.41-107.382l1.306-35.81c0.42-11.523,10.102-20.523,21.624-20.103l21.038,0.767
						c11.523,0.42,20.523,10.101,20.103,21.624l-1.172,32.151c34.489,2.642,59.417,9.465,79.114,17.204
						c10.093,3.964,15.277,15.181,12.059,25.535l-9.49,30.541c-3.659,11.777-16.609,17.828-27.979,13.049
						c-18.117-7.617-43.827-15.798-77.588-17.029c-42.657-1.555-55.486,15.671-56.063,31.516
						c-0.711,19.499,24.393,33.838,79.222,52.924c78.354,26.653,110.058,60.759,107.903,119.869
						c-1.978,54.235-43.973,101.517-122.417,110.862l-1.461,40.072c-0.42,11.523-10.101,20.523-21.624,20.103l-21.041-0.767
						C2140.502,2030.206,2131.501,2020.525,2131.921,2009.001z"/>
				</g>
			</g>
		</g>
	</g>
</g>
</svg>
