<svg xmlns="http://www.w3.org/2000/svg" xmlns:xlink="http://www.w3.org/1999/xlink" width="140" zoomAndPan="magnify" viewBox="0 0 30 30.000001" height="40" preserveAspectRatio="xMidYMid meet" version="1.0"><defs><clipPath id="e21a5083a5"><path d="M 7.976562 11.1875 L 19.375 11.1875 L 19.375 21.238281 L 7.976562 21.238281 Z M 7.976562 11.1875 " clip-rule="nonzero"/></clipPath><clipPath id="5330af9210"><path d="M 8.34375 12.777344 C 7.648438 14.300781 8.066406 15.78125 8.890625 16.566406 L 13.714844 21.152344 L 18.433594 16.582031 C 19.199219 15.738281 19.433594 14.839844 19.332031 13.839844 C 19.105469 12.460938 17.957031 11.390625 16.539062 11.234375 C 15.667969 11.164062 14.828125 11.386719 14.171875 11.925781 C 13.996094 12.074219 13.839844 12.234375 13.703125 12.410156 C 13.539062 12.210938 13.347656 12.027344 13.128906 11.863281 C 12.375 11.296875 11.417969 11.128906 10.492188 11.246094 C 9.621094 11.414062 8.835938 11.972656 8.34375 12.777344 Z M 8.34375 12.777344 " clip-rule="nonzero"/></clipPath></defs><g clip-path="url(#e21a5083a5)"><g clip-path="url(#5330af9210)"><path stroke-linecap="butt" transform="matrix(0.725806, 0, 0, 0.725806, 7.887096, 11.187324)" fill="none" stroke-linejoin="miter" d="M 0.629167 2.190694 C -0.328819 4.289652 0.247049 6.329409 1.38264 7.41118 L 8.029341 13.729582 L 14.530729 7.432707 C 15.58559 6.270207 15.908507 5.03236 15.768576 3.654583 C 15.456424 1.754756 13.874132 0.280104 11.920486 0.0648258 C 10.720313 -0.0320492 9.563195 0.274722 8.659028 1.01743 C 8.416841 1.221944 8.201563 1.442604 8.013195 1.684791 C 7.787153 1.410312 7.523438 1.157361 7.222049 0.931319 C 6.183334 0.150937 4.864757 -0.0804867 3.589237 0.0809717 C 2.389063 0.312395 1.307292 1.082013 0.629167 2.190694 Z M 0.629167 2.190694 " stroke="#50af87" stroke-width="2" stroke-opacity="1" stroke-miterlimit="4"/></g></g></svg>