<svg xmlns="http://www.w3.org/2000/svg" xmlns:xlink="http://www.w3.org/1999/xlink" width="1080" zoomAndPan="magnify" viewBox="0 0 810 809.999993" height="1080" preserveAspectRatio="xMidYMid meet" version="1.0"><defs><g/></defs><g fill="#50af87" fill-opacity="1"><g transform="translate(0.0000035, 487.124995)"><g><path d="M 100.703125 0 L 81.90625 0 L 56.625 -57.515625 C 55.875 -59.160156 54.9375 -61.398438 53.8125 -64.234375 C 52.695312 -67.066406 51.46875 -70.195312 50.125 -73.625 C 48.78125 -77.0625 47.363281 -80.679688 45.875 -84.484375 C 44.382812 -88.285156 42.96875 -92.128906 41.625 -96.015625 C 41.625 -92.128906 41.585938 -88.285156 41.515625 -84.484375 C 41.441406 -80.679688 41.328125 -77.097656 41.171875 -73.734375 C 41.023438 -70.378906 40.914062 -67.394531 40.84375 -64.78125 C 40.769531 -62.175781 40.734375 -60.128906 40.734375 -58.640625 L 38.5 0 L 13.421875 0 L 22.375 -151.953125 L 43.1875 -151.953125 L 81.46875 -57.0625 C 82.800781 -53.632812 84.328125 -49.90625 86.046875 -45.875 C 87.765625 -41.84375 89.367188 -37.890625 90.859375 -34.015625 C 92.347656 -37.890625 93.910156 -41.804688 95.546875 -45.765625 C 97.191406 -49.722656 98.765625 -53.488281 100.265625 -57.0625 L 138.75 -151.953125 L 159.125 -151.953125 L 168.078125 0 L 143.234375 0 L 140.765625 -57.96875 C 140.617188 -61.695312 140.429688 -67.03125 140.203125 -73.96875 C 139.984375 -80.90625 139.800781 -87.953125 139.65625 -95.109375 C 138.3125 -91.378906 136.929688 -87.648438 135.515625 -83.921875 C 134.097656 -80.191406 132.789062 -76.6875 131.59375 -73.40625 C 130.394531 -70.125 129.273438 -67.140625 128.234375 -64.453125 C 127.191406 -61.765625 126.375 -59.675781 125.78125 -58.1875 Z M 100.703125 0 "/></g></g></g><g fill="#50af87" fill-opacity="1"><g transform="translate(181.501494, 487.124995)"><g><path d="M 104.515625 -53.9375 C 104.515625 -44.976562 105.070312 -37.476562 106.1875 -31.4375 C 107.3125 -25.394531 108.546875 -20.507812 109.890625 -16.78125 C 111.523438 -12.3125 113.3125 -8.804688 115.25 -6.265625 L 95.34375 1.796875 C 93.394531 -0.148438 91.601562 -2.460938 89.96875 -5.140625 C 88.625 -7.535156 87.351562 -10.410156 86.15625 -13.765625 C 84.96875 -17.117188 84.222656 -21.109375 83.921875 -25.734375 C 81.390625 -16.785156 77.320312 -10.035156 71.71875 -5.484375 C 66.125 -0.929688 58.554688 1.34375 49.015625 1.34375 C 42.003906 1.34375 35.921875 0.0390625 30.765625 -2.5625 C 25.617188 -5.175781 21.328125 -8.90625 17.890625 -13.75 C 14.460938 -18.601562 11.925781 -24.460938 10.28125 -31.328125 C 8.644531 -38.191406 7.828125 -45.800781 7.828125 -54.15625 C 7.828125 -62.664062 9.132812 -70.535156 11.75 -77.765625 C 14.363281 -85.003906 18.019531 -91.234375 22.71875 -96.453125 C 27.414062 -101.679688 33.046875 -105.785156 39.609375 -108.765625 C 46.171875 -111.742188 53.410156 -113.234375 61.328125 -113.234375 C 65.796875 -113.234375 70.453125 -112.898438 75.296875 -112.234375 C 80.148438 -111.566406 84.664062 -110.859375 88.84375 -110.109375 C 93.019531 -109.359375 96.5625 -108.644531 99.46875 -107.96875 C 102.382812 -107.300781 104.066406 -106.894531 104.515625 -106.75 Z M 53.265625 -16.5625 C 56.992188 -16.5625 60.425781 -17.828125 63.5625 -20.359375 C 66.695312 -22.898438 69.421875 -26.222656 71.734375 -30.328125 C 74.046875 -34.429688 75.832031 -39.128906 77.09375 -44.421875 C 78.363281 -49.722656 79 -55.132812 79 -60.65625 L 79 -92.875 C 77.507812 -93.320312 75.269531 -93.84375 72.28125 -94.4375 C 69.300781 -95.039062 66.617188 -95.34375 64.234375 -95.34375 C 58.554688 -95.34375 53.890625 -94.367188 50.234375 -92.421875 C 46.585938 -90.484375 43.644531 -87.796875 41.40625 -84.359375 C 39.164062 -80.929688 37.597656 -76.832031 36.703125 -72.0625 C 35.804688 -67.289062 35.359375 -62.066406 35.359375 -56.390625 C 35.359375 -51.171875 35.503906 -46.171875 35.796875 -41.390625 C 36.097656 -36.617188 36.882812 -32.367188 38.15625 -28.640625 C 39.425781 -24.910156 41.253906 -21.960938 43.640625 -19.796875 C 46.023438 -17.640625 49.234375 -16.5625 53.265625 -16.5625 Z M 53.265625 -16.5625 "/></g></g></g><g fill="#50af87" fill-opacity="1"><g transform="translate(301.458081, 487.124995)"><g><path d="M 2.234375 -111.453125 L 22.375 -111.453125 L 26.859375 -137.640625 L 47.890625 -142.328125 L 47.890625 -111.453125 L 75.421875 -111.453125 L 72.28125 -93.328125 L 47.890625 -93.328125 L 47.890625 -27.078125 C 47.890625 -23.203125 48.929688 -20.703125 51.015625 -19.578125 C 53.109375 -18.460938 55.425781 -17.90625 57.96875 -17.90625 C 60.050781 -17.90625 62.132812 -18.050781 64.21875 -18.34375 C 66.3125 -18.644531 68.179688 -19.019531 69.828125 -19.46875 C 71.765625 -19.914062 73.628906 -20.4375 75.421875 -21.03125 L 79.671875 -4.25 L 77.65625 -3.578125 C 76.3125 -2.984375 74.332031 -2.347656 71.71875 -1.671875 C 69.113281 -1.003906 66.054688 -0.410156 62.546875 0.109375 C 59.046875 0.628906 55.207031 0.890625 51.03125 0.890625 C 46.851562 0.890625 43.007812 0.441406 39.5 -0.453125 C 35.988281 -1.347656 32.960938 -2.800781 30.421875 -4.8125 C 27.890625 -6.820312 25.914062 -9.394531 24.5 -12.53125 C 23.082031 -15.664062 22.375 -19.546875 22.375 -24.171875 L 22.375 -93.328125 L 2.234375 -93.328125 Z M 2.234375 -111.453125 "/></g></g></g><g fill="#50af87" fill-opacity="1"><g transform="translate(382.249725, 487.124995)"><g><path d="M 104.515625 -53.9375 C 104.515625 -44.976562 105.070312 -37.476562 106.1875 -31.4375 C 107.3125 -25.394531 108.546875 -20.507812 109.890625 -16.78125 C 111.523438 -12.3125 113.3125 -8.804688 115.25 -6.265625 L 95.34375 1.796875 C 93.394531 -0.148438 91.601562 -2.460938 89.96875 -5.140625 C 88.625 -7.535156 87.351562 -10.410156 86.15625 -13.765625 C 84.96875 -17.117188 84.222656 -21.109375 83.921875 -25.734375 C 81.390625 -16.785156 77.320312 -10.035156 71.71875 -5.484375 C 66.125 -0.929688 58.554688 1.34375 49.015625 1.34375 C 42.003906 1.34375 35.921875 0.0390625 30.765625 -2.5625 C 25.617188 -5.175781 21.328125 -8.90625 17.890625 -13.75 C 14.460938 -18.601562 11.925781 -24.460938 10.28125 -31.328125 C 8.644531 -38.191406 7.828125 -45.800781 7.828125 -54.15625 C 7.828125 -62.664062 9.132812 -70.535156 11.75 -77.765625 C 14.363281 -85.003906 18.019531 -91.234375 22.71875 -96.453125 C 27.414062 -101.679688 33.046875 -105.785156 39.609375 -108.765625 C 46.171875 -111.742188 53.410156 -113.234375 61.328125 -113.234375 C 65.796875 -113.234375 70.453125 -112.898438 75.296875 -112.234375 C 80.148438 -111.566406 84.664062 -110.859375 88.84375 -110.109375 C 93.019531 -109.359375 96.5625 -108.644531 99.46875 -107.96875 C 102.382812 -107.300781 104.066406 -106.894531 104.515625 -106.75 Z M 53.265625 -16.5625 C 56.992188 -16.5625 60.425781 -17.828125 63.5625 -20.359375 C 66.695312 -22.898438 69.421875 -26.222656 71.734375 -30.328125 C 74.046875 -34.429688 75.832031 -39.128906 77.09375 -44.421875 C 78.363281 -49.722656 79 -55.132812 79 -60.65625 L 79 -92.875 C 77.507812 -93.320312 75.269531 -93.84375 72.28125 -94.4375 C 69.300781 -95.039062 66.617188 -95.34375 64.234375 -95.34375 C 58.554688 -95.34375 53.890625 -94.367188 50.234375 -92.421875 C 46.585938 -90.484375 43.644531 -87.796875 41.40625 -84.359375 C 39.164062 -80.929688 37.597656 -76.832031 36.703125 -72.0625 C 35.804688 -67.289062 35.359375 -62.066406 35.359375 -56.390625 C 35.359375 -51.171875 35.503906 -46.171875 35.796875 -41.390625 C 36.097656 -36.617188 36.882812 -32.367188 38.15625 -28.640625 C 39.425781 -24.910156 41.253906 -21.960938 43.640625 -19.796875 C 46.023438 -17.640625 49.234375 -16.5625 53.265625 -16.5625 Z M 53.265625 -16.5625 "/></g></g></g><g fill="#50af87" fill-opacity="1"><g transform="translate(502.206323, 487.124995)"><g><path d="M 40.0625 -162.25 L 40.0625 -98.46875 C 41.25 -99.957031 42.773438 -101.5625 44.640625 -103.28125 C 46.503906 -105 48.851562 -106.601562 51.6875 -108.09375 C 54.53125 -109.582031 57.816406 -110.847656 61.546875 -111.890625 C 65.273438 -112.941406 69.601562 -113.46875 74.53125 -113.46875 C 79.15625 -113.46875 83.476562 -112.796875 87.5 -111.453125 C 91.53125 -110.109375 95 -108.164062 97.90625 -105.625 C 100.820312 -103.09375 103.132812 -100 104.84375 -96.34375 C 106.5625 -92.6875 107.421875 -88.546875 107.421875 -83.921875 C 107.421875 -77.210938 106.039062 -71.691406 103.28125 -67.359375 C 100.519531 -63.035156 97.425781 -59.601562 94 -57.0625 C 90.113281 -54.082031 85.632812 -51.695312 80.5625 -49.90625 L 111.890625 0 L 83.03125 0 L 50.796875 -55.71875 L 50.578125 -57.96875 C 51.773438 -58.257812 54.050781 -58.925781 57.40625 -59.96875 C 60.757812 -61.019531 64.226562 -62.515625 67.8125 -64.453125 C 71.394531 -66.390625 74.566406 -68.8125 77.328125 -71.71875 C 80.085938 -74.632812 81.46875 -78.109375 81.46875 -82.140625 C 81.46875 -86.460938 80.195312 -89.742188 77.65625 -91.984375 C 75.125 -94.222656 71.769531 -95.34375 67.59375 -95.34375 C 61.914062 -95.34375 57.285156 -94.222656 53.703125 -91.984375 C 50.128906 -89.742188 47.332031 -87.207031 45.3125 -84.375 C 43.300781 -81.539062 41.921875 -78.851562 41.171875 -76.3125 C 40.429688 -73.78125 40.0625 -72.289062 40.0625 -71.84375 L 40.0625 0 L 14.546875 0 L 14.546875 -157.78125 Z M 40.0625 -162.25 "/></g></g></g></svg>